# xmcd
#
# Track frame offsets:
#	150
#	18131
#	34255
#	50879
#	69256
#	85423
#	101551
#	118012
#	136136
#	156725
#	175035
#	189970
#	206515
#
# Disc length: 3027 seconds
#
# Revision: 0
# Processed by: cddbd v1.5.2PL0 Copyright (c) Steve Scherf et al.
# Submitted via: EasyCDDAExtractor 7.1.2.1
#
DISCID=af0bd10d
DTITLE=Zucchero - Fly
DYEAR=2006
DGENRE=Latin - Blues
TTITLE0=Bacco perbacco
TTITLE1=Un kilo
TTITLE2=Occhi
TTITLE3=Quanti anni ho
TTITLE4=Cuba libre
TTITLE5=E' Delicato
TTITLE6=L'amore È Nell'aria
TTITLE7=Pronto
TTITLE8=Let it shine
TTITLE9=Troppa fedeltà
TTITLE10=E di grazia plena
TTITLE11=Flying away (Occhi - Bonus Track)
TTITLE12=Shine (Bonus track)
EXTD=
EXTT0=
EXTT1=
EXTT2=
EXTT3=
EXTT4=
EXTT5=
EXTT6=
EXTT7=
EXTT8=
EXTT9=
EXTT10=
EXTT11=
EXTT12=
PLAYORDER=
